<?xml version="1.0" encoding="utf-8"?>
<!-- Svg Vector Icons : http://www.onlinewebfonts.com/icon -->
<!DOCTYPE svg PUBLIC "-//W3C//DTD SVG 1.1//EN" "http://www.w3.org/Graphics/SVG/1.1/DTD/svg11.dtd">
<svg version="1.1" xmlns="http://www.w3.org/2000/svg" xmlns:xlink="http://www.w3.org/1999/xlink" x="0px" y="0px" viewBox="0 0 1000 1000" enable-background="new 0 0 1000 1000" xml:space="preserve">
<metadata> Svg Vector Icons : http://www.onlinewebfonts.com/icon </metadata>
<g><path d="M989.9,282c-0.2-15.6-0.3-22-0.4-29.4c-0.4-22-1.8-44.2-5.6-64.1c-4.1-21.6-9.6-41.3-19.6-61.1c-10.1-20-24-37.2-39-52.6c-15.4-15-32.7-28.9-52.6-39c-19.7-10-39.3-15.5-61.1-19.6c-19.9-3.7-42.1-5.2-64.1-5.6c-7.4-0.1-13.8-0.2-29.4-0.4C703.1,10.1,691,10,682,10c-45.6,0-318.3,0-364,0c-9,0-21.2,0.1-36,0.2c-15.6,0.2-22,0.3-29.4,0.4c-22,0.4-44.2,1.8-64.1,5.6c-21.6,4.1-41.3,9.6-61.1,19.6c-20,10.1-37.2,24-52.6,39c-15,15.4-28.9,32.7-39,52.6c-10,19.7-15.5,39.3-19.6,61.1c-3.7,19.9-5.2,42.1-5.5,64.1c-0.1,7.4-0.2,13.8-0.4,29.4c-0.1,14.9-0.2,27.1-0.2,36.1v364c0,9,0.1,21.2,0.2,36c0.2,15.6,0.3,22,0.4,29.4c0.4,22,1.8,44.2,5.5,64.1c4.1,21.6,9.6,41.3,19.6,61.1c10.1,20,24,37.2,39,52.6c15.4,15,32.7,28.9,52.6,39c19.7,10,39.3,15.5,61.1,19.6c19.9,3.7,42.1,5.2,64.1,5.6c7.4,0.1,13.8,0.2,29.4,0.4c14.8,0.1,27,0.2,36,0.2c45.6,0,318.3,0,364,0c9,0,21.2-0.1,36-0.2c15.6-0.2,22-0.3,29.4-0.4c22-0.4,44.2-1.8,64.1-5.6c21.6-4.1,41.3-9.6,61.1-19.6c20-10.1,37.2-24,52.6-39c15-15.4,28.9-32.7,39-52.6c10-19.7,15.5-39.3,19.6-61.1c3.7-19.9,5.2-42.1,5.6-64.1c0.1-7.4,0.2-13.8,0.4-29.4c0.1-14.8,0.2-27,0.2-36v-364C990.1,309.1,990,296.9,989.9,282z M816.2,291.7L562.4,545.6c-17.4,17.4-40.3,26.1-63.2,26.1c-22.9,0-45.7-8.7-63.2-26.1L182.3,291.7H816.2z M173.7,313.9l187.1,187.1L173.7,688.3V313.9z M184.5,708.3l191.8-191.8l44.4,44.4c21,21,48.9,32.5,78.6,32.5s57.6-11.6,78.6-32.5l45.2-45.2l192.6,192.6H184.5z M826.4,688.3l-188-188l188-187.9V688.3z"/></g>
</svg>